<svg width="25" height="25" viewBox="0 0 25 25" fill="none" xmlns="http://www.w3.org/2000/svg">
<g id="Software">
<path id="Vector" d="M7.33337 11.3333V10.8333H6.83337V11.3333H7.33337ZM7.33337 15.3333H6.83337V15.8333H7.33337V15.3333ZM17.3334 11.3333H17.8334V10.8333H17.3334V11.3333ZM17.3334 15.3333V15.8333H17.8334V15.3333H17.3334ZM18.3334 8.33325H18.8334V8.12625L18.6874 7.97925L18.3334 8.33325ZM15.3334 5.33325L15.6874 4.97925L15.5404 4.83325H15.3334V5.33325ZM6.83337 11.3333V15.3333H7.83337V11.3333H6.83337ZM7.33337 15.8333H8.33337V14.8333H7.33337V15.8333ZM9.83337 14.3333V12.3333H8.83337V14.3333H9.83337ZM8.33337 10.8333H7.33337V11.8333H8.33337V10.8333ZM9.83337 12.3333C9.83337 11.9354 9.67534 11.5539 9.39403 11.2726C9.11273 10.9913 8.7312 10.8333 8.33337 10.8333V11.8333C8.46598 11.8333 8.59316 11.8859 8.68693 11.9797C8.7807 12.0735 8.83337 12.2006 8.83337 12.3333H9.83337ZM8.33337 15.8333C8.7312 15.8333 9.11273 15.6752 9.39403 15.3939C9.67534 15.1126 9.83337 14.7311 9.83337 14.3333H8.83337C8.83337 14.4659 8.7807 14.593 8.68693 14.6868C8.59316 14.7806 8.46598 14.8333 8.33337 14.8333V15.8333ZM10.8334 12.3333V14.3333H11.8334V12.3333H10.8334ZM13.8334 14.3333V12.3333H12.8334V14.3333H13.8334ZM13.8334 12.3333C13.8334 11.9354 13.6753 11.5539 13.394 11.2726C13.1127 10.9913 12.7312 10.8333 12.3334 10.8333V11.8333C12.466 11.8333 12.5932 11.8859 12.6869 11.9797C12.7807 12.0735 12.8334 12.2006 12.8334 12.3333H13.8334ZM12.3334 15.8333C12.7312 15.8333 13.1127 15.6752 13.394 15.3939C13.6753 15.1126 13.8334 14.7311 13.8334 14.3333H12.8334C12.8334 14.4659 12.7807 14.593 12.6869 14.6868C12.5932 14.7806 12.466 14.8333 12.3334 14.8333V15.8333ZM10.8334 14.3333C10.8334 14.7311 10.9914 15.1126 11.2727 15.3939C11.554 15.6752 11.9355 15.8333 12.3334 15.8333V14.8333C12.2008 14.8333 12.0736 14.7806 11.9798 14.6868C11.8861 14.593 11.8334 14.4659 11.8334 14.3333H10.8334ZM11.8334 12.3333C11.8334 12.2006 11.8861 12.0735 11.9798 11.9797C12.0736 11.8859 12.2008 11.8333 12.3334 11.8333V10.8333C11.9355 10.8333 11.554 10.9913 11.2727 11.2726C10.9914 11.5539 10.8334 11.9354 10.8334 12.3333H11.8334ZM14.8334 10.8333V15.8333H15.8334V10.8333H14.8334ZM15.3334 11.8333H17.3334V10.8333H15.3334V11.8333ZM16.8334 11.3333V12.8333H17.8334V11.3333H16.8334ZM15.3334 15.8333H17.3334V14.8333H15.3334V15.8333ZM17.8334 15.3333V13.8333H16.8334V15.3333H17.8334ZM6.83337 9.83325V6.33325H5.83337V9.83325H6.83337ZM17.8334 8.33325V9.83325H18.8334V8.33325H17.8334ZM7.33337 5.83325H15.3334V4.83325H7.33337V5.83325ZM14.9794 5.68725L17.9794 8.68725L18.6874 7.97925L15.6874 4.97925L14.9794 5.68725ZM6.83337 6.33325C6.83337 6.20064 6.88605 6.07347 6.97982 5.9797C7.07359 5.88593 7.20077 5.83325 7.33337 5.83325V4.83325C6.93555 4.83325 6.55402 4.99129 6.27271 5.27259C5.99141 5.5539 5.83337 5.93543 5.83337 6.33325H6.83337ZM5.83337 16.8333V18.3333H6.83337V16.8333H5.83337ZM7.33337 19.8333H17.3334V18.8333H7.33337V19.8333ZM18.8334 18.3333V16.8333H17.8334V18.3333H18.8334ZM17.3334 19.8333C17.7312 19.8333 18.1127 19.6752 18.394 19.3939C18.6753 19.1126 18.8334 18.7311 18.8334 18.3333H17.8334C17.8334 18.4659 17.7807 18.593 17.6869 18.6868C17.5932 18.7806 17.466 18.8333 17.3334 18.8333V19.8333ZM5.83337 18.3333C5.83337 18.7311 5.99141 19.1126 6.27271 19.3939C6.55402 19.6752 6.93555 19.8333 7.33337 19.8333V18.8333C7.20077 18.8333 7.07359 18.7806 6.97982 18.6868C6.88605 18.593 6.83337 18.4659 6.83337 18.3333H5.83337Z" fill="#4B5563"/>
</g>
</svg>
