<svg width="24" height="24" viewBox="0 0 24 24" fill="none" xmlns="http://www.w3.org/2000/svg">
<path fill-rule="evenodd" clip-rule="evenodd" d="M21.4549 5.41601C21.5499 5.56022 21.5922 5.7328 21.5747 5.9046C21.5573 6.0764 21.481 6.23691 21.3589 6.35901L12.1659 15.551C12.0718 15.645 11.9545 15.7123 11.8259 15.746L7.99689 16.746C7.87032 16.779 7.73732 16.7784 7.61109 16.7441C7.48485 16.7098 7.36978 16.6431 7.27729 16.5506C7.18479 16.4581 7.1181 16.3431 7.08382 16.2168C7.04955 16.0906 7.04888 15.9576 7.08189 15.831L8.08189 12.003C8.11109 11.8881 8.16616 11.7814 8.24289 11.691L17.4699 2.47001C17.6105 2.32956 17.8011 2.25067 17.9999 2.25067C18.1986 2.25067 18.3893 2.32956 18.5299 2.47001L21.3589 5.29801C21.3948 5.33402 21.4269 5.37355 21.4549 5.41601ZM19.7679 5.82801L17.9999 4.06101L9.48189 12.579L8.85689 14.972L11.2499 14.347L19.7679 5.82801Z" fill="#6B7280"/>
<path d="M19.6406 17.16C19.9139 14.824 20.0012 12.4699 19.9016 10.12C19.8994 10.0646 19.9087 10.0094 19.9288 9.95782C19.9489 9.9062 19.9795 9.85928 20.0186 9.82001L21.0026 8.83601C21.0295 8.80897 21.0636 8.79027 21.1008 8.78215C21.1381 8.77404 21.1769 8.77686 21.2126 8.79027C21.2483 8.80368 21.2794 8.82712 21.3021 8.85776C21.3248 8.88841 21.3381 8.92495 21.3406 8.96301C21.5258 11.7542 21.4555 14.5566 21.1306 17.335C20.8946 19.357 19.2706 20.942 17.2576 21.167C13.7629 21.554 10.2362 21.554 6.74157 21.167C4.72957 20.942 3.10457 19.357 2.86857 17.335C2.45397 13.7904 2.45397 10.2096 2.86857 6.66501C3.10457 4.64301 4.72857 3.05801 6.74157 2.83301C9.39394 2.53889 12.0663 2.46764 14.7306 2.62001C14.7687 2.62275 14.8052 2.63635 14.8359 2.65922C14.8665 2.68209 14.8899 2.71325 14.9034 2.74903C14.9169 2.78481 14.9198 2.82369 14.9119 2.86108C14.9039 2.89847 14.8854 2.93281 14.8586 2.96001L13.8656 3.95201C13.8267 3.99076 13.7803 4.02113 13.7292 4.04125C13.6781 4.06137 13.6234 4.07082 13.5686 4.06901C11.3453 3.99343 9.11952 4.07866 6.90857 4.32401C6.26251 4.39552 5.65942 4.68273 5.19672 5.13926C4.73403 5.59579 4.43874 6.19497 4.35857 6.84001C3.95762 10.2683 3.95762 13.7317 4.35857 17.16C4.43874 17.805 4.73403 18.4042 5.19672 18.8608C5.65942 19.3173 6.26251 19.6045 6.90857 19.676C10.2636 20.051 13.7356 20.051 17.0916 19.676C17.7376 19.6045 18.3407 19.3173 18.8034 18.8608C19.2661 18.4042 19.5604 17.805 19.6406 17.16Z" fill="#6B7280"/>
</svg>
